<?xml version="1.0" encoding="utf-8"?>
<!-- Generator: Adobe Illustrator 21.0.0, SVG Export Plug-In . SVG Version: 6.00 Build 0)  -->
<svg version="1.1" id="Layer_1" xmlns="http://www.w3.org/2000/svg" xmlns:xlink="http://www.w3.org/1999/xlink" x="0px" y="0px"
	 viewBox="0 0 944.5 123.7" style="enable-background:new 0 0 944.5 123.7;" xml:space="preserve">
<style type="text/css">
	.st0{fill:#4D4D4D;}
	.st1{fill:#808080;}
</style>
<g>
	<path class="st0" d="M53.1,71.1c0-3.7-1.3-6.5-3.9-8.5c-2.6-2-7.3-4-14-6.2c-6.8-2.2-12.1-4.3-16-6.5C8.4,44.1,3,36.3,3,26.4
		c0-5.1,1.4-9.7,4.3-13.7s7-7.1,12.4-9.4C25.1,1.1,31.2,0,37.9,0s12.8,1.2,18,3.7c5.3,2.4,9.4,5.9,12.3,10.4s4.4,9.5,4.4,15.2H53.1
		c0-4.3-1.4-7.7-4.1-10.1c-2.7-2.4-6.6-3.6-11.5-3.6c-4.8,0-8.5,1-11.1,3s-4,4.7-4,8c0,3.1,1.5,5.7,4.6,7.7c3.1,2.1,7.7,4,13.7,5.8
		c11.1,3.3,19.2,7.5,24.2,12.4s7.7,11.1,7.7,18.4c0,8.2-3.1,14.6-9.3,19.3s-14.5,7-25,7c-7.3,0-13.9-1.3-19.9-4S7.9,86.9,4.7,82.3
		C1.6,77.7,0,72.3,0,66.2h19.6c0,10.4,6.2,15.7,18.7,15.7c4.6,0,8.2-0.9,10.8-2.8C51.8,77.1,53.1,74.4,53.1,71.1z"/>
	<path class="st0" d="M154.4,76.4h-34.2l-6.5,19.5H93l35.2-94.6h18.1l35.3,94.6h-20.7L154.4,76.4z M125.5,60.6h23.6l-11.9-35.4
		L125.5,60.6z"/>
	<path class="st0" d="M231.1,1.3l24.3,68.6l24.2-68.6h25.6v94.6h-19.6V70l1.9-44.6L262,95.9h-13.4l-25.5-70.4l1.9,44.6v25.8h-19.4
		V1.3H231.1z"/>
	<path class="st0" d="M356.8,62.6v33.3h-19.5V1.3h36.9c7.1,0,13.3,1.3,18.7,3.9c5.4,2.6,9.5,6.3,12.4,11.1s4.4,10.2,4.4,16.3
		c0,9.3-3.2,16.6-9.5,21.9s-15.1,8-26.3,8L356.8,62.6L356.8,62.6z M356.8,46.8h17.4c5.2,0,9.1-1.2,11.8-3.6
		c2.7-2.4,4.1-5.9,4.1-10.4c0-4.6-1.4-8.4-4.1-11.2c-2.7-2.9-6.5-4.3-11.3-4.4h-17.9V46.8z"/>
	<path class="st0" d="M457.8,80.2h41.4v15.7h-60.9V1.3h19.5V80.2z"/>
	<path class="st0" d="M582.4,54.9H545v25.3h43.9v15.7h-63.4V1.3h63.3v15.8H545v22.5h37.4V54.9z"/>
	<path class="st1" d="M630.5,85.7h44.8v10.2H618V1.3h12.5V85.7z"/>
	<path class="st1" d="M699.7,60.1c0-6.9,1.4-13.1,4.1-18.6c2.7-5.5,6.5-9.7,11.3-12.7s10.3-4.5,16.5-4.5c9.6,0,17.3,3.3,23.2,9.9
		s8.9,15.4,8.9,26.4v0.8c0,6.8-1.3,13-3.9,18.4c-2.6,5.4-6.4,9.7-11.2,12.7c-4.9,3-10.5,4.5-16.8,4.5c-9.5,0-17.2-3.3-23.2-9.9
		c-5.9-6.6-8.9-15.4-8.9-26.3L699.7,60.1L699.7,60.1z M711.8,61.5c0,7.8,1.8,14.1,5.4,18.8c3.6,4.7,8.5,7.1,14.5,7.1
		c6.1,0,11-2.4,14.5-7.2c3.6-4.8,5.4-11.5,5.4-20.1c0-7.7-1.8-14-5.5-18.7c-3.7-4.8-8.5-7.2-14.6-7.2c-5.9,0-10.7,2.4-14.4,7.1
		C713.6,46,711.8,52.7,711.8,61.5z"/>
	<path class="st1" d="M791,60.2c0-11,2.5-19.7,7.6-26.1c5.1-6.5,11.8-9.7,20.1-9.7c8.6,0,15.3,3,20.1,9.1l0.6-7.8h11v68.6
		c0,9.1-2.7,16.3-8.1,21.5c-5.4,5.2-12.6,7.9-21.7,7.9c-5.1,0-10-1.1-14.9-3.2c-4.9-2.2-8.6-5.1-11.1-8.9l6.2-7.2
		c5.2,6.4,11.5,9.5,18.9,9.5c5.8,0,10.4-1.6,13.7-4.9s4.9-7.9,4.9-13.9v-6c-4.8,5.5-11.4,8.3-19.7,8.3c-8.2,0-14.9-3.3-20-9.9
		C793.6,80.6,791,71.6,791,60.2z M803.1,61.5c0,7.9,1.6,14.1,4.9,18.7c3.2,4.5,7.8,6.8,13.6,6.8c7.6,0,13.1-3.4,16.7-10.3V44.6
		c-3.7-6.7-9.2-10.1-16.6-10.1c-5.8,0-10.4,2.3-13.7,6.8C804.7,45.9,803.1,52.6,803.1,61.5z"/>
	<path class="st1" d="M880.5,60.1c0-6.9,1.4-13.1,4.1-18.6c2.7-5.5,6.5-9.7,11.3-12.7s10.3-4.5,16.5-4.5c9.6,0,17.3,3.3,23.2,9.9
		s8.9,15.4,8.9,26.4v0.8c0,6.8-1.3,13-3.9,18.4c-2.6,5.4-6.4,9.7-11.2,12.7c-4.9,3-10.5,4.5-16.8,4.5c-9.5,0-17.2-3.3-23.2-9.9
		c-5.9-6.6-8.9-15.4-8.9-26.3L880.5,60.1L880.5,60.1z M892.6,61.5c0,7.8,1.8,14.1,5.4,18.8c3.6,4.7,8.5,7.1,14.5,7.1
		c6.1,0,11-2.4,14.5-7.2c3.6-4.8,5.4-11.5,5.4-20.1c0-7.7-1.8-14-5.5-18.7c-3.7-4.8-8.5-7.2-14.6-7.2c-5.9,0-10.7,2.4-14.4,7.1
		C894.4,46,892.6,52.7,892.6,61.5z"/>
</g>
</svg>
